<svg xmlns="http://www.w3.org/2000/svg" viewBox="0 0 32 32" width="32" height="32">
  <defs>
    <linearGradient id="fg" x1="0%" y1="100%" x2="0%" y2="0%">
      <stop offset="0%" style="stop-color:#8B0000"/>
      <stop offset="100%" style="stop-color:#FF2D2D"/>
    </linearGradient>
  </defs>
  <circle cx="16" cy="16" r="15" fill="#0A0A0A" stroke="#FF2D2D" stroke-width="1" stroke-opacity="0.5"/>
  <path d="M16,5 C12,9 8,14 8,19 C8,24 11.5,28 16,28 C20.5,28 24,24 24,19 C24,14 20,9 16,5 Z" fill="url(#fg)"/>
  <path d="M16,12 C14,14.5 12,17 12,20 C12,22.5 13.8,24.5 16,24.5 C18.2,24.5 20,22.5 20,20 C20,17 18,14.5 16,12 Z" fill="#FF6B6B" opacity="0.7"/>
</svg>
